<svg id="Capa_1" enable-background="new 0 0 512.001 512.001" height="1em" viewBox="0 0 512.001 512.001" width="1em" xmlns="http://www.w3.org/2000/svg"><g><g><g clip-rule="evenodd" fill-rule="evenodd"><path d="m395.412 504.501v-436.651h-60.35v-60.349l-305.586-.001v372.397 65.217 21.033 38.353zm-125.332-96.201v-37.5h75v37.5z" fill="#a7eed4"/><path d="m270.08 370.8h75v37.5h-75z" fill="#f7ec91"/><g fill="#d0dbef"><path d="m395.412 67.85-60.351-60.349v60.349z"/><path d="m437.624 61.9h29.999v29.999h-29.999z"/><path d="m467.623 419.875v-29.999h-29.999v29.999l15 29.999z"/></g><path d="m474.949 389.876 7.5-281.404-14.826-16.573h-29.999l-14.826 16.573 7.5 281.404h7.326 29.999z" fill="#ed9b88"/><path d="m59.475 7.5h-30v497h30c0-165.667 0-331.333 0-497z" fill="#71e4bf"/><path d="m270.08 370.8h30v37.5h-30z" fill="#edd52e"/><path d="m467.623 91.9v-.001h-29.999l-14.826 16.573 7.5 281.404h7.326 29.999-7.325l-7.5-281.404z" fill="#e76c4c"/></g><g><path d="m66.975 82.5h-15v-52.5h30v15h-15zm75.001-37.5h-15v-15h15zm-30 0h-15v-15h15z" fill="#fff"/></g><g><path d="m372.912 482.001h-52.5v-15h37.5v-15h15zm-67.5 0h-15v-15h15z" fill="#fff"/></g><g><path d="m460.124 217.127h-15v-15h15zm0-30h-15v-65.228h15z" fill="#fff"/></g></g><g><path d="m21.976 0v430.114h15v-415.114h290.585v60.35h60.351v421.651h-350.936v-51.886h-15v66.886h380.936v-447.258l-64.744-64.743zm320.585 25.606 34.745 34.744h-34.745z"/><path d="m490.025 105.693-14.902-16.658v-34.635h-44.999v34.635l-14.902 16.658 7.774 291.683h7.129v24.27l22.5 44.999 22.499-44.999v-24.27h7.129zm-52.424 276.683-2.858-107.25h35.762l-2.858 107.25zm-3.258-122.251-3.968-148.874 10.603-11.852h23.292l10.603 11.852-3.968 148.874zm10.781-190.725h14.999v14.999h-14.999zm14.999 348.704-7.499 14.999-7.5-14.999v-20.729h14.999z"/><path d="m102.305 325.033h106.968v15h-106.968z"/><path d="m72.306 325.033h15v15h-15z"/><path d="m261.913 248.5h90.667v15h-90.667z"/><path d="m72.306 248.5h174.606v15h-174.606z"/><path d="m142.682 286.767h209.898v15h-209.898z"/><path d="m72.306 286.767h55.376v15h-55.376z"/><path d="m72.306 210.233h55.376v15h-55.376z"/><path d="m142.682 210.233h209.898v15h-209.898z"/><path d="m72.306 133.7h174.606v15h-174.606z"/><path d="m261.913 133.7h90.667v15h-90.667z"/><path d="m72.306 186.967h55.376 15 104.23 15.001 90.667v-15h-90.667-15.001-104.23-15-55.376z"/><path d="m102.305 363.3h106.968v15h-106.968z"/><path d="m72.306 363.3h15v15h-15z"/><path d="m275.613 95.434h76.967v15h-76.967z"/><path d="m215.613 95.434h15.001v15h-15.001z"/><path d="m245.613 95.434h15v15h-15z"/><path d="m352.58 415.8v-52.5h-90v52.5zm-75-37.5h60v22.5h-60z"/></g></g></svg>
