<svg id="bold" enable-background="new 0 0 24 24" height="512" viewBox="0 0 24 24" width="512" xmlns="http://www.w3.org/2000/svg"><path d="m24 17.5v.75c0 .2-.08.39-.22.53l-5 5c-.14.14-.33.22-.53.22h-.75v-5.75c0-.41.34-.75.75-.75z"/><path d="m21.25 5h-7.5v2.25c0 .965-.785 1.75-1.75 1.75s-1.75-.785-1.75-1.75v-2.25h-7.5c-1.52 0-2.75 1.23-2.75 2.75v13.5c0 1.52 1.23 2.75 2.75 2.75h13.75v-5.75c0-.965.785-1.75 1.75-1.75h5.75v-8.75c0-1.52-1.23-2.75-2.75-2.75zm-7.25 14.5h-9.25c-.414 0-.75-.336-.75-.75s.336-.75.75-.75h9.25c.414 0 .75.336.75.75s-.336.75-.75.75zm5.25-4h-14.5c-.414 0-.75-.336-.75-.75s.336-.75.75-.75h14.5c.414 0 .75.336.75.75s-.336.75-.75.75zm0-4h-14.5c-.414 0-.75-.336-.75-.75s.336-.75.75-.75h14.5c.414 0 .75.336.75.75s-.336.75-.75.75z"/><path d="m12 8c-.414 0-.75-.336-.75-.75v-3.75c0-.414.336-.75.75-.75s.75.336.75.75v3.75c0 .414-.336.75-.75.75z"/><path d="m12 4c-1.103 0-2-.897-2-2s.897-2 2-2 2 .897 2 2-.897 2-2 2z"/></svg>